<svg id="color" enable-background="new 0 0 24 24" height="512" viewBox="0 0 24 24" width="512" xmlns="http://www.w3.org/2000/svg"><path d="m12 24c-1.228 0-12-.084-12-3v-7h24v7c0 2.916-10.772 3-12 3z" fill="#ffc107"/><path d="m12 18c-1.228 0-12-.084-12-3v-7h24v7c0 2.916-10.772 3-12 3z" fill="#ffd54f"/><path d="m12 12c-1.228 0-12-.084-12-3v-6h24v6c0 2.916-10.772 3-12 3z" fill="#ffc107"/><path d="m12 6c-1.228 0-12-.084-12-3 0-2.916 10.772-3 12-3s12 .084 12 3-10.772 3-12 3z" fill="#ffd54f"/><path d="m0 15v6c0 2.916 10.772 3 12 3v-6c-1.228 0-12-.084-12-3z" fill="#dea806"/><path d="m0 9v6c0 2.916 10.772 3 12 3v-6c-1.228 0-12-.084-12-3z" fill="#deb945"/><path d="m0 3v6c0 2.916 10.772 3 12 3v-6c-1.228 0-12-.084-12-3z" fill="#dea806"/><path d="m12 0c-1.228 0-12 .084-12 3 0 2.916 10.772 3 12 3z" fill="#deb945"/><g fill="#fff"><path d="m6 8.5c0 .829-.671 1.5-1.5 1.5s-1.5-.671-1.5-1.5.671-1.5 1.5-1.5 1.5.671 1.5 1.5z"/><path d="m6 14.5c0 .829-.671 1.5-1.5 1.5s-1.5-.671-1.5-1.5.671-1.5 1.5-1.5 1.5.671 1.5 1.5z"/><path d="m6 20.5c0 .829-.671 1.5-1.5 1.5s-1.5-.671-1.5-1.5.671-1.5 1.5-1.5 1.5.671 1.5 1.5z"/></g><path d="m4.5 7c-.829 0-1.5.671-1.5 1.5s.671 1.5 1.5 1.5z" fill="#dedede"/><path d="m4.5 13c-.829 0-1.5.671-1.5 1.5s.671 1.5 1.5 1.5z" fill="#dedede"/><path d="m4.5 19c-.829 0-1.5.671-1.5 1.5s.671 1.5 1.5 1.5z" fill="#dedede"/></svg>