<svg id="color" enable-background="new 0 0 24 24" height="512" viewBox="0 0 24 24" width="512" xmlns="http://www.w3.org/2000/svg"><path d="m12.75 18c-.074 0-.149-.011-.223-.034-.313-.097-.527-.387-.527-.716v-3.25h-6.25c-.414 0-.75-.336-.75-.75v-11.5c0-.965.785-1.75 1.75-1.75h15.5c.965 0 1.75.785 1.75 1.75v10.5c0 .965-.785 1.75-1.75 1.75h-6.355l-2.526 3.675c-.143.207-.377.325-.619.325z" fill="#4caf50"/><circle cx="5.5" cy="14.5" fill="#2196f3" r="3"/><path d="m8.25 19h-5.5c-1.517 0-2.75 1.233-2.75 2.75v1.5c0 .414.336.75.75.75h9.5c.414 0 .75-.336.75-.75v-1.5c0-1.517-1.233-2.75-2.75-2.75z" fill="#2196f3"/><g fill="#fafafa"><path d="m14.25 11c-.414 0-.75-.336-.75-.75v-.75c0-.414.336-.75.75-.75s.75.336.75.75v.75c0 .414-.336.75-.75.75z"/><path d="m14.25 5.25c-.414 0-.75-.336-.75-.75v-.75c0-.414.336-.75.75-.75s.75.336.75.75v.75c0 .414-.336.75-.75.75z"/><path d="m14.375 10h-1.375c-.414 0-.75-.336-.75-.75s.336-.75.75-.75h1.375c.207 0 .375-.168.375-.375s-.168-.375-.375-.375h-.25c-1.034 0-1.875-.841-1.875-1.875s.841-1.875 1.875-1.875h1.375c.414 0 .75.336.75.75s-.336.75-.75.75h-1.375c-.207 0-.375.168-.375.375s.168.375.375.375h.25c1.034 0 1.875.841 1.875 1.875s-.841 1.875-1.875 1.875z"/></g></svg>