<svg id="color" enable-background="new 0 0 24 24" height="512" viewBox="0 0 24 24" width="512" xmlns="http://www.w3.org/2000/svg"><path d="m20.25 7.75h-16.5c-.229 0-.444-.104-.586-.282-.143-.178-.196-.412-.145-.634l1.099-5.431c.165-.816.882-1.403 1.715-1.403h12.334c.833 0 1.551.587 1.716 1.403l1.099 5.431c.051.222-.003.456-.146.634-.142.178-.357.282-.586.282z" fill="#1976d2"/><path d="m3 12v6h18v-6z" fill="#64b5f6"/><path d="m3 18v3.5c0 1.381 1.119 2.5 2.5 2.5h13c1.381 0 2.5-1.119 2.5-2.5v-3.5z" fill="#2196f3"/><path d="m20 6h-16c-.553 0-1 .448-1 1v5h18v-5c0-.552-.447-1-1-1z" fill="#2196f3"/><path d="m3.001 6.968c-.001.016-.001.033-.001.049v-.017c0-.011 0-.021.001-.032zm8.999-6.968h-6.167c-.833 0-1.55.587-1.716 1.403l-1.072 5.298c.127-.406.506-.701.955-.701h8z" fill="#1667b7"/><path d="m12 12h-9v6h9z" fill="#579ed6"/><path d="m12 18h-9v3.5c0 1.381 1.119 2.5 2.5 2.5h6.5z" fill="#1d83d4"/><path d="m12 6h-8c-.449 0-.828.295-.955.701-.026.085-.042.174-.044.267-.001.011-.001.021-.001.032v.017 4.983h9z" fill="#1d83d4"/><circle cx="6" cy="15" fill="#ffc107" r="1"/><circle cx="10" cy="15" fill="#ffc107" r="1"/><path d="m18 16h-3c-.553 0-1-.448-1-1s.447-1 1-1h3c.553 0 1 .448 1 1s-.447 1-1 1z" fill="#fff"/><circle cx="6" cy="21" fill="#ffc107" r="1"/><circle cx="10" cy="21" fill="#ffc107" r="1"/><path d="m18 22h-3c-.553 0-1-.448-1-1s.447-1 1-1h3c.553 0 1 .448 1 1s-.447 1-1 1z" fill="#fff"/><path d="m7 9c0 .552-.447 1-1 1s-1-.448-1-1 .447-1 1-1 1 .448 1 1z" fill="#ffc107"/><path d="m11 9c0 .552-.447 1-1 1s-1-.448-1-1 .447-1 1-1 1 .448 1 1z" fill="#ffc107"/><path d="m18 10h-3c-.553 0-1-.448-1-1s.447-1 1-1h3c.553 0 1 .448 1 1s-.447 1-1 1z" fill="#fff"/><path d="m7 9h-2c0 .552.447 1 1 1s1-.448 1-1z" fill="#dea806"/><path d="m11 9h-2c0 .552.447 1 1 1s1-.448 1-1z" fill="#dea806"/><path d="m19 9h-5c0 .552.447 1 1 1h3c.553 0 1-.448 1-1z" fill="#dedede"/><path d="m7 15h-2c0 .552.447 1 1 1s1-.448 1-1z" fill="#dea806"/><path d="m11 15h-2c0 .552.447 1 1 1s1-.448 1-1z" fill="#dea806"/><path d="m19 15h-5c0 .552.447 1 1 1h3c.553 0 1-.448 1-1z" fill="#dedede"/><path d="m7 21h-2c0 .552.447 1 1 1s1-.448 1-1z" fill="#dea806"/><path d="m11 21h-2c0 .552.447 1 1 1s1-.448 1-1z" fill="#dea806"/><path d="m19 21h-5c0 .552.447 1 1 1h3c.553 0 1-.448 1-1z" fill="#dedede"/></svg>