<svg id="color" enable-background="new 0 0 24 24" height="512" viewBox="0 0 24 24" width="512" xmlns="http://www.w3.org/2000/svg"><path d="m10 0 10 4-10 4-10-4z" fill="#4caf50"/><path d="m0 4 10 4v12l-10-4z" fill="#81c784"/><path d="m10 20 10-4v-12l-10 4z" fill="#66bb6a"/><path d="m10 0-10 4 10 4z" fill="#429846"/><path d="m0 4v12l10 4v-12z" fill="#70ad73"/><path d="m17.5 11c-3.584 0-6.5 2.916-6.5 6.5s2.916 6.5 6.5 6.5 6.5-2.916 6.5-6.5-2.916-6.5-6.5-6.5z" fill="#ffc107"/><path d="m17.5 22c-.414 0-.75-.336-.75-.75s.336-.75.75-.75.75.336.75.75-.336.75-.75.75z" fill="#fff"/><path d="m18.991 17.658c-.654.502-.741.965-.741 1.592 0 .414-.336.75-.75.75s-.75-.336-.75-.75c0-1.098.331-2.017 1.327-2.782.265-.203.423-.534.423-.884 0-.598-.449-1.084-1-1.084s-1 .486-1 1.084c0 .414-.336.75-.75.75s-.75-.336-.75-.75c0-1.425 1.122-2.584 2.5-2.584s2.5 1.159 2.5 2.584c0 .812-.377 1.588-1.009 2.074z" fill="#fff"/><path d="m17.5 11c-3.584 0-6.5 2.916-6.5 6.5s2.916 6.5 6.5 6.5v-2c-.414 0-.75-.336-.75-.75s.336-.75.75-.75v-.5c-.414 0-.75-.336-.75-.75 0-.85.198-1.592.75-2.24v-2.51c-.551 0-1 .486-1 1.084 0 .414-.336.75-.75.75s-.75-.336-.75-.75c0-1.425 1.122-2.584 2.5-2.584z" fill="#dea806"/><g fill="#dedede"><path d="m17.5 20.5c-.414 0-.75.336-.75.75s.336.75.75.75z"/><path d="m17.5 17.01c-.552.647-.75 1.39-.75 2.24 0 .414.336.75.75.75zm0-4.01c-1.378 0-2.5 1.159-2.5 2.584 0 .414.336.75.75.75s.75-.336.75-.75c0-.598.449-1.084 1-1.084z"/></g></svg>